<svg width="800" height="800" viewBox="0 0 800 800" fill="none" xmlns="http://www.w3.org/2000/svg">
<g clip-path="url(#clip0_265_61)">
<path d="M800 737.5C800 772.019 772.019 800 737.5 800H62.5C27.9813 800 0 772.019 0 737.5V62.5C0 27.9813 27.9813 0 62.5 0H737.5C772.019 0 800 27.9813 800 62.5V737.5Z" fill="#FFD200"/>
<path d="M400 112.5C220.506 112.5 75 227.228 75 368.75C75 460.247 135.831 540.531 227.338 585.866C222.359 603.034 195.347 696.316 194.272 703.644C194.272 703.644 193.625 709.15 197.191 711.25C200.756 713.35 204.95 711.719 204.95 711.719C215.175 710.291 323.522 634.184 342.275 620.969C361.009 623.622 380.3 625 400 625C579.494 625 725 510.275 725 368.75C725 227.228 579.494 112.5 400 112.5Z" fill="black"/>
<path d="M220.312 458.203C209.972 458.203 201.562 450.172 201.562 440.297V328.906H172.306C162.159 328.906 153.906 320.669 153.906 310.547C153.906 300.425 162.163 292.188 172.306 292.188H268.319C278.466 292.188 286.719 300.425 286.719 310.547C286.719 320.669 278.462 328.906 268.319 328.906H239.062V440.297C239.062 450.172 230.653 458.203 220.312 458.203ZM384.725 457.959C376.906 457.959 370.925 454.784 369.122 449.678L359.838 425.372L302.662 425.369L293.372 449.691C291.575 454.788 285.597 457.959 277.778 457.959C273.665 457.964 269.6 457.081 265.859 455.372C260.691 452.987 255.722 446.431 261.416 428.747L306.266 310.697C309.425 301.719 319.022 292.469 331.234 292.191C343.481 292.466 353.078 301.719 356.244 310.716L401.075 428.713C406.781 446.438 401.813 452.997 396.644 455.375C392.902 457.081 388.837 457.963 384.725 457.959ZM349.978 392.159L331.25 338.956L312.522 392.159H349.978ZM431.25 455.469C421.341 455.469 413.281 447.756 413.281 438.281V310.938C413.281 300.597 421.869 292.188 432.422 292.188C442.975 292.188 451.562 300.597 451.562 310.938V421.094H491.406C501.316 421.094 509.375 428.806 509.375 438.281C509.375 447.756 501.316 455.469 491.406 455.469H431.25ZM535.419 457.959C525.078 457.959 516.669 449.55 516.669 439.209V310.938C516.669 300.597 525.078 292.188 535.419 292.188C545.759 292.188 554.169 300.597 554.169 310.938V351.238L606.481 298.925C609.172 296.234 612.869 294.753 616.881 294.753C621.562 294.753 626.263 296.772 629.784 300.291C633.069 303.572 635.028 307.794 635.297 312.178C635.569 316.6 634.097 320.653 631.159 323.594L588.431 366.316L634.584 427.459C636.075 429.421 637.16 431.659 637.778 434.044C638.396 436.428 638.534 438.912 638.184 441.35C637.85 443.79 637.035 446.139 635.786 448.262C634.537 450.385 632.88 452.238 630.909 453.716C627.667 456.18 623.704 457.51 619.631 457.5C616.726 457.514 613.858 456.846 611.257 455.552C608.656 454.258 606.394 452.372 604.653 450.047L560.681 391.784L554.175 398.291V439.2C554.169 444.173 552.191 448.941 548.675 452.457C545.159 455.974 540.392 457.953 535.419 457.959Z" fill="#FFD200"/>
<path d="M220.312 458.203C209.972 458.203 201.562 450.172 201.562 440.297V328.906H172.306C162.159 328.906 153.906 320.669 153.906 310.547C153.906 300.425 162.163 292.188 172.306 292.188H268.319C278.466 292.188 286.719 300.425 286.719 310.547C286.719 320.669 278.462 328.906 268.319 328.906H239.062V440.297C239.062 450.172 230.653 458.203 220.312 458.203ZM384.725 457.959C376.906 457.959 370.925 454.784 369.122 449.678L359.838 425.372L302.662 425.369L293.372 449.691C291.575 454.788 285.597 457.959 277.778 457.959C273.665 457.964 269.6 457.081 265.859 455.372C260.691 452.987 255.722 446.431 261.416 428.747L306.266 310.697C309.425 301.719 319.022 292.469 331.234 292.191C343.481 292.466 353.078 301.719 356.244 310.716L401.075 428.713C406.781 446.438 401.813 452.997 396.644 455.375C392.902 457.081 388.837 457.963 384.725 457.959ZM349.978 392.159L331.25 338.956L312.522 392.159H349.978ZM431.25 455.469C421.341 455.469 413.281 447.756 413.281 438.281V310.938C413.281 300.597 421.869 292.188 432.422 292.188C442.975 292.188 451.562 300.597 451.562 310.938V421.094H491.406C501.316 421.094 509.375 428.806 509.375 438.281C509.375 447.756 501.316 455.469 491.406 455.469H431.25ZM535.419 457.959C525.078 457.959 516.669 449.55 516.669 439.209V310.938C516.669 300.597 525.078 292.188 535.419 292.188C545.759 292.188 554.169 300.597 554.169 310.938V351.238L606.481 298.925C609.172 296.234 612.869 294.753 616.881 294.753C621.562 294.753 626.263 296.772 629.784 300.291C633.069 303.572 635.028 307.794 635.297 312.178C635.569 316.6 634.097 320.653 631.159 323.594L588.431 366.316L634.584 427.459C636.075 429.421 637.16 431.659 637.778 434.044C638.396 436.428 638.534 438.912 638.184 441.35C637.85 443.79 637.035 446.139 635.786 448.262C634.537 450.385 632.88 452.238 630.909 453.716C627.667 456.18 623.704 457.51 619.631 457.5C616.726 457.514 613.858 456.846 611.257 455.552C608.656 454.258 606.394 452.372 604.653 450.047L560.681 391.784L554.175 398.291V439.2C554.169 444.173 552.191 448.941 548.675 452.457C545.159 455.974 540.392 457.953 535.419 457.959Z" fill="#FFD200"/>
<path d="M312.6 202.088C313.581 202.088 314.307 202.131 314.776 202.216C315.288 202.259 315.843 202.451 316.44 202.792C317.08 203.133 317.528 203.709 317.784 204.52C318.04 205.331 318.168 206.419 318.168 207.784C318.168 209.149 318.04 210.237 317.784 211.048C317.528 211.859 317.08 212.435 316.44 212.776C315.8 213.075 315.224 213.267 314.712 213.352C314.243 213.395 313.496 213.416 312.472 213.416H292.888V219.88H305.496C306.52 219.88 307.267 219.923 307.736 220.008C308.248 220.051 308.824 220.243 309.464 220.584C310.573 221.224 311.128 222.909 311.128 225.64C311.128 228.627 310.317 230.397 308.696 230.952C308.013 231.165 306.925 231.272 305.432 231.272H292.888V243.368C292.888 244.392 292.845 245.139 292.76 245.608C292.717 246.077 292.525 246.632 292.184 247.272C291.587 248.424 289.923 249 287.192 249C284.205 249 282.456 248.189 281.944 246.568C281.688 245.885 281.56 244.797 281.56 243.304V207.72C281.56 205.544 281.965 204.072 282.776 203.304C283.587 202.493 285.123 202.088 287.384 202.088H312.6ZM351.302 203.816C351.643 203.176 352.219 202.728 353.03 202.472C353.841 202.216 354.865 202.088 356.102 202.088C357.339 202.088 358.321 202.195 359.046 202.408C359.771 202.621 360.326 202.877 360.71 203.176C361.094 203.475 361.393 203.901 361.606 204.456C361.819 205.181 361.926 206.291 361.926 207.784V243.304C361.926 244.285 361.883 245.032 361.798 245.544C361.755 246.013 361.563 246.568 361.222 247.208C360.625 248.36 358.961 248.936 356.23 248.936C353.243 248.936 351.494 248.147 350.982 246.568C350.726 245.843 350.598 244.733 350.598 243.24V230.248H333.638V243.304C333.638 244.285 333.595 245.032 333.51 245.544C333.467 246.013 333.275 246.568 332.934 247.208C332.337 248.36 330.673 248.936 327.942 248.936C324.955 248.936 323.206 248.147 322.694 246.568C322.438 245.843 322.31 244.733 322.31 243.24V207.72C322.31 206.739 322.331 206.013 322.374 205.544C322.459 205.032 322.673 204.456 323.014 203.816C323.611 202.664 325.275 202.088 328.006 202.088C330.993 202.088 332.763 202.877 333.318 204.456C333.531 205.181 333.638 206.291 333.638 207.784V220.84H350.598V207.72C350.598 206.739 350.619 206.013 350.662 205.544C350.747 205.032 350.961 204.456 351.302 203.816ZM378.388 237.672H398.1C399.081 237.672 399.807 237.715 400.276 237.8C400.788 237.843 401.364 238.035 402.004 238.376C403.156 238.973 403.732 240.637 403.732 243.368C403.732 246.355 402.943 248.104 401.364 248.616C400.639 248.872 399.529 249 398.036 249H372.692C369.705 249 367.956 248.189 367.444 246.568C367.188 245.885 367.06 244.797 367.06 243.304V207.72C367.06 205.544 367.465 204.072 368.276 203.304C369.087 202.493 370.623 202.088 372.884 202.088H398.1C399.081 202.088 399.807 202.131 400.276 202.216C400.788 202.259 401.364 202.451 402.004 202.792C403.156 203.389 403.732 205.053 403.732 207.784C403.732 210.771 402.943 212.52 401.364 213.032C400.639 213.288 399.529 213.416 398.036 213.416H378.388V219.88H391.06C392.041 219.88 392.767 219.923 393.236 220.008C393.748 220.051 394.324 220.243 394.964 220.584C396.116 221.181 396.692 222.845 396.692 225.576C396.692 228.563 395.881 230.312 394.26 230.824C393.535 231.08 392.425 231.208 390.932 231.208H378.388V237.672ZM450.689 202.792C453.206 204.029 454.465 205.395 454.465 206.888C454.465 207.571 454.145 208.595 453.505 209.96L435.841 245.8C435.371 246.739 434.646 247.507 433.665 248.104C432.726 248.659 431.745 248.936 430.721 248.936H430.081C429.014 248.936 427.99 248.659 427.009 248.104C426.07 247.507 425.366 246.739 424.897 245.8L407.233 209.96C406.593 208.595 406.273 207.571 406.273 206.888C406.273 205.395 407.531 204.029 410.049 202.792C411.457 202.067 412.523 201.704 413.249 201.704C414.017 201.704 414.593 201.789 414.977 201.96C415.361 202.131 415.723 202.429 416.065 202.856C416.449 203.368 416.79 203.944 417.089 204.584C417.43 205.181 418.262 206.952 419.585 209.896C420.907 212.797 422.315 215.891 423.809 219.176C425.345 222.461 426.774 225.576 428.097 228.52C429.462 231.421 430.23 233.043 430.401 233.384L443.201 205.352C443.542 204.541 443.841 203.901 444.097 203.432C444.865 202.28 445.803 201.704 446.913 201.704C448.022 201.704 449.281 202.067 450.689 202.792ZM507.854 203.88C508.195 204.52 508.387 205.096 508.43 205.608C508.515 206.12 508.558 206.867 508.558 207.848V243.368C508.558 246.312 507.747 248.04 506.126 248.552C505.315 248.808 504.291 248.936 503.054 248.936C501.816 248.936 500.835 248.829 500.11 248.616C499.384 248.403 498.83 248.147 498.446 247.848C498.062 247.549 497.763 247.123 497.55 246.568C497.336 245.843 497.23 244.733 497.23 243.24V221.8C496.163 223.123 494.606 225.235 492.558 228.136C490.51 230.995 489.208 232.787 488.654 233.512C488.099 234.237 487.715 234.749 487.502 235.048C487.288 235.304 486.755 235.688 485.902 236.2C485.091 236.669 484.195 236.904 483.214 236.904C482.275 236.904 481.4 236.691 480.59 236.264C479.822 235.795 479.267 235.347 478.926 234.92L478.414 234.216C477.56 233.149 475.875 230.888 473.358 227.432C470.84 223.933 469.475 222.056 469.262 221.8V243.368C469.262 244.349 469.219 245.096 469.134 245.608C469.091 246.077 468.899 246.611 468.558 247.208C467.918 248.36 466.254 248.936 463.566 248.936C460.963 248.936 459.342 248.36 458.702 247.208C458.36 246.611 458.147 246.056 458.062 245.544C458.019 245.032 457.998 244.264 457.998 243.24V207.72C457.998 206.739 458.019 206.013 458.062 205.544C458.147 205.032 458.36 204.456 458.702 203.816C459.342 202.707 461.006 202.152 463.694 202.152C464.846 202.152 465.827 202.301 466.638 202.6C467.491 202.856 468.046 203.133 468.302 203.432L468.686 203.816L483.214 222.888C490.467 213.288 495.31 206.952 497.742 203.88C498.467 202.728 500.174 202.152 502.862 202.152C505.592 202.152 507.256 202.728 507.854 203.88Z" fill="white"/>
</g>
<defs>
<clipPath id="clip0_265_61">
<rect width="800" height="800" fill="white"/>
</clipPath>
</defs>
</svg>
