<svg width="800" height="800" viewBox="0 0 800 800" fill="none" xmlns="http://www.w3.org/2000/svg">
<g clip-path="url(#clip0_237_2)">
<path d="M800 737.5C800 772.019 772.019 800 737.5 800H62.5C27.9813 800 0 772.019 0 737.5V62.5C0 27.9813 27.9813 0 62.5 0H737.5C772.019 0 800 27.9813 800 62.5V737.5Z" fill="#FFD200"/>
<path d="M400 112.5C220.506 112.5 75 227.228 75 368.75C75 460.247 135.831 540.531 227.338 585.866C222.359 603.034 195.347 696.316 194.272 703.644C194.272 703.644 193.625 709.15 197.191 711.25C200.756 713.35 204.95 711.719 204.95 711.719C215.175 710.291 323.522 634.184 342.275 620.969C361.009 623.622 380.3 625 400 625C579.494 625 725 510.275 725 368.75C725 227.228 579.494 112.5 400 112.5Z" fill="black"/>
<path d="M220.312 458.203C209.972 458.203 201.562 450.172 201.562 440.297V328.906H172.306C162.159 328.906 153.906 320.669 153.906 310.547C153.906 300.425 162.163 292.188 172.306 292.188H268.319C278.466 292.188 286.719 300.425 286.719 310.547C286.719 320.669 278.462 328.906 268.319 328.906H239.062V440.297C239.062 450.172 230.653 458.203 220.312 458.203ZM384.725 457.959C376.906 457.959 370.925 454.784 369.122 449.678L359.838 425.372L302.662 425.369L293.372 449.691C291.575 454.788 285.597 457.959 277.778 457.959C273.665 457.964 269.6 457.081 265.859 455.372C260.691 452.987 255.722 446.431 261.416 428.747L306.266 310.697C309.425 301.719 319.022 292.469 331.234 292.191C343.481 292.466 353.078 301.719 356.244 310.716L401.075 428.713C406.781 446.438 401.813 452.997 396.644 455.375C392.902 457.081 388.837 457.963 384.725 457.959ZM349.978 392.159L331.25 338.956L312.522 392.159H349.978ZM431.25 455.469C421.341 455.469 413.281 447.756 413.281 438.281V310.938C413.281 300.597 421.869 292.188 432.422 292.188C442.975 292.188 451.562 300.597 451.562 310.938V421.094H491.406C501.316 421.094 509.375 428.806 509.375 438.281C509.375 447.756 501.316 455.469 491.406 455.469H431.25ZM535.419 457.959C525.078 457.959 516.669 449.55 516.669 439.209V310.938C516.669 300.597 525.078 292.188 535.419 292.188C545.759 292.188 554.169 300.597 554.169 310.938V351.238L606.481 298.925C609.172 296.234 612.869 294.753 616.881 294.753C621.562 294.753 626.263 296.772 629.784 300.291C633.069 303.572 635.028 307.794 635.297 312.178C635.569 316.6 634.097 320.653 631.159 323.594L588.431 366.316L634.584 427.459C636.075 429.421 637.16 431.659 637.778 434.044C638.396 436.428 638.534 438.912 638.184 441.35C637.85 443.79 637.035 446.139 635.786 448.262C634.537 450.385 632.88 452.238 630.909 453.716C627.667 456.18 623.704 457.51 619.631 457.5C616.726 457.514 613.858 456.846 611.257 455.552C608.656 454.258 606.394 452.372 604.653 450.047L560.681 391.784L554.175 398.291V439.2C554.169 444.173 552.191 448.941 548.675 452.457C545.159 455.974 540.392 457.953 535.419 457.959Z" fill="#FFD200"/>
<path d="M220.312 458.203C209.972 458.203 201.562 450.172 201.562 440.297V328.906H172.306C162.159 328.906 153.906 320.669 153.906 310.547C153.906 300.425 162.163 292.188 172.306 292.188H268.319C278.466 292.188 286.719 300.425 286.719 310.547C286.719 320.669 278.462 328.906 268.319 328.906H239.062V440.297C239.062 450.172 230.653 458.203 220.312 458.203ZM384.725 457.959C376.906 457.959 370.925 454.784 369.122 449.678L359.838 425.372L302.662 425.369L293.372 449.691C291.575 454.788 285.597 457.959 277.778 457.959C273.665 457.964 269.6 457.081 265.859 455.372C260.691 452.987 255.722 446.431 261.416 428.747L306.266 310.697C309.425 301.719 319.022 292.469 331.234 292.191C343.481 292.466 353.078 301.719 356.244 310.716L401.075 428.713C406.781 446.438 401.813 452.997 396.644 455.375C392.902 457.081 388.837 457.963 384.725 457.959ZM349.978 392.159L331.25 338.956L312.522 392.159H349.978ZM431.25 455.469C421.341 455.469 413.281 447.756 413.281 438.281V310.938C413.281 300.597 421.869 292.188 432.422 292.188C442.975 292.188 451.562 300.597 451.562 310.938V421.094H491.406C501.316 421.094 509.375 428.806 509.375 438.281C509.375 447.756 501.316 455.469 491.406 455.469H431.25ZM535.419 457.959C525.078 457.959 516.669 449.55 516.669 439.209V310.938C516.669 300.597 525.078 292.188 535.419 292.188C545.759 292.188 554.169 300.597 554.169 310.938V351.238L606.481 298.925C609.172 296.234 612.869 294.753 616.881 294.753C621.562 294.753 626.263 296.772 629.784 300.291C633.069 303.572 635.028 307.794 635.297 312.178C635.569 316.6 634.097 320.653 631.159 323.594L588.431 366.316L634.584 427.459C636.075 429.421 637.16 431.659 637.778 434.044C638.396 436.428 638.534 438.912 638.184 441.35C637.85 443.79 637.035 446.139 635.786 448.262C634.537 450.385 632.88 452.238 630.909 453.716C627.667 456.18 623.704 457.51 619.631 457.5C616.726 457.514 613.858 456.846 611.257 455.552C608.656 454.258 606.394 452.372 604.653 450.047L560.681 391.784L554.175 398.291V439.2C554.169 444.173 552.191 448.941 548.675 452.457C545.159 455.974 540.392 457.953 535.419 457.959Z" fill="#FFD200"/>
<path d="M347.984 234.056C349.648 234.056 350.843 234.269 351.568 234.696C352.336 235.08 352.848 235.656 353.104 236.424C353.403 237.192 353.552 238.173 353.552 239.368C353.552 240.563 353.445 241.523 353.232 242.248C353.019 242.973 352.763 243.528 352.464 243.912C352.165 244.296 351.717 244.573 351.12 244.744C350.437 245 349.349 245.128 347.856 245.128H321.232C320.251 245.128 319.312 244.872 318.416 244.36C316.539 243.293 315.6 241.608 315.6 239.304C315.6 238.195 315.856 237.299 316.368 236.616L336.208 209.16H321.488C320.464 209.16 319.696 209.139 319.184 209.096C318.715 209.011 318.139 208.819 317.456 208.52C316.219 207.923 315.6 206.323 315.6 203.72C315.6 200.989 316.176 199.325 317.328 198.728C317.968 198.387 318.523 198.195 318.992 198.152C319.504 198.067 320.272 198.024 321.296 198.024H347.024C348.005 198.024 348.944 198.28 349.84 198.792C350.736 199.304 351.419 199.987 351.888 200.84C352.4 201.693 352.656 202.696 352.656 203.848C352.656 205 352.4 205.917 351.888 206.6L332.048 234.056H347.984ZM384.757 201.416L402.037 237.128C402.762 238.579 403.125 239.667 403.125 240.392C403.125 241.928 401.888 243.315 399.413 244.552C397.962 245.277 396.81 245.64 395.957 245.64C395.146 245.64 394.464 245.448 393.909 245.064C393.397 244.68 393.013 244.275 392.757 243.848C392.544 243.421 392.224 242.781 391.797 241.928L388.469 235.016H370.741L367.413 241.928C366.986 242.781 366.645 243.4 366.389 243.784C366.176 244.168 365.792 244.573 365.237 245C364.725 245.384 364.042 245.576 363.189 245.576C362.378 245.576 361.248 245.213 359.797 244.488C357.322 243.293 356.085 241.928 356.085 240.392C356.085 239.667 356.448 238.579 357.173 237.128L374.453 201.352C374.922 200.371 375.626 199.581 376.565 198.984C377.546 198.387 378.57 198.088 379.637 198.088C381.941 198.088 383.648 199.197 384.757 201.416ZM379.573 216.776L375.349 225.544H383.861L379.573 216.776ZM456.479 199.88C456.82 200.52 457.012 201.096 457.055 201.608C457.14 202.12 457.183 202.867 457.183 203.848V239.368C457.183 242.312 456.372 244.04 454.751 244.552C453.94 244.808 452.916 244.936 451.679 244.936C450.441 244.936 449.46 244.829 448.735 244.616C448.009 244.403 447.455 244.147 447.071 243.848C446.687 243.549 446.388 243.123 446.175 242.568C445.961 241.843 445.855 240.733 445.855 239.24V217.8C444.788 219.123 443.231 221.235 441.183 224.136C439.135 226.995 437.833 228.787 437.279 229.512C436.724 230.237 436.34 230.749 436.127 231.048C435.913 231.304 435.38 231.688 434.527 232.2C433.716 232.669 432.82 232.904 431.839 232.904C430.9 232.904 430.025 232.691 429.215 232.264C428.447 231.795 427.892 231.347 427.551 230.92L427.039 230.216C426.185 229.149 424.5 226.888 421.983 223.432C419.465 219.933 418.1 218.056 417.887 217.8V239.368C417.887 240.349 417.844 241.096 417.759 241.608C417.716 242.077 417.524 242.611 417.183 243.208C416.543 244.36 414.879 244.936 412.191 244.936C409.588 244.936 407.967 244.36 407.327 243.208C406.985 242.611 406.772 242.056 406.687 241.544C406.644 241.032 406.623 240.264 406.623 239.24V203.72C406.623 202.739 406.644 202.013 406.687 201.544C406.772 201.032 406.985 200.456 407.327 199.816C407.967 198.707 409.631 198.152 412.319 198.152C413.471 198.152 414.452 198.301 415.263 198.6C416.116 198.856 416.671 199.133 416.927 199.432L417.311 199.816L431.839 218.888C439.092 209.288 443.935 202.952 446.367 199.88C447.092 198.728 448.799 198.152 451.487 198.152C454.217 198.152 455.881 198.728 456.479 199.88ZM489.382 201.416L506.662 237.128C507.387 238.579 507.75 239.667 507.75 240.392C507.75 241.928 506.513 243.315 504.038 244.552C502.587 245.277 501.435 245.64 500.582 245.64C499.771 245.64 499.089 245.448 498.534 245.064C498.022 244.68 497.638 244.275 497.382 243.848C497.169 243.421 496.849 242.781 496.422 241.928L493.094 235.016H475.366L472.038 241.928C471.611 242.781 471.27 243.4 471.014 243.784C470.801 244.168 470.417 244.573 469.862 245C469.35 245.384 468.667 245.576 467.814 245.576C467.003 245.576 465.873 245.213 464.422 244.488C461.947 243.293 460.71 241.928 460.71 240.392C460.71 239.667 461.073 238.579 461.798 237.128L479.078 201.352C479.547 200.371 480.251 199.581 481.19 198.984C482.171 198.387 483.195 198.088 484.262 198.088C486.566 198.088 488.273 199.197 489.382 201.416ZM484.198 216.776L479.974 225.544H488.486L484.198 216.776Z" fill="white"/>
</g>
<defs>
<clipPath id="clip0_237_2">
<rect width="800" height="800" fill="white"/>
</clipPath>
</defs>
</svg>
