<svg width="158" height="40" viewBox="0 0 158 40" fill="none" xmlns="http://www.w3.org/2000/svg">
<g clip-path="url(#clip0_262_267)">
<mask id="mask0_262_267" style="mask-type:luminance" maskUnits="userSpaceOnUse" x="22" y="10" width="13" height="19">
<path d="M22.668 10.0781H34.668V28.4635H22.668V10.0781Z" fill="white"/>
</mask>
<g mask="url(#mask0_262_267)">
<path d="M22.7773 28.4635L29.8659 10.0781H33.4128L26.6992 28.4635H22.7773Z" fill="#1D1D1B"/>
</g>
<mask id="mask1_262_267" style="mask-type:luminance" maskUnits="userSpaceOnUse" x="33" y="10" width="13" height="19">
<path d="M33.332 10.0781H45.332V28.4635H33.332V10.0781Z" fill="white"/>
</mask>
<g mask="url(#mask1_262_267)">
<path d="M33.4102 10.0781H37.181L44.1185 28.4635H40.1966L33.4102 10.0781Z" fill="#1D1D1B"/>
</g>
<path d="M29.694 20.2598H37.1732L38.2253 23.1139H28.6523L29.694 20.2598Z" fill="#1D1D1B"/>
<mask id="mask2_262_267" style="mask-type:luminance" maskUnits="userSpaceOnUse" x="46" y="10" width="6" height="19">
<path d="M46.668 10.0781H52.0013V28.4635H46.668V10.0781Z" fill="white"/>
</mask>
<g mask="url(#mask2_262_267)">
<path d="M47.8906 10.0781H51.8125V28.4635H47.8906V10.0781Z" fill="#1D1D1B"/>
</g>
<mask id="mask3_262_267" style="mask-type:luminance" maskUnits="userSpaceOnUse" x="50" y="10" width="13" height="19">
<path d="M50.668 10.0781H62.668V28.4635H50.668V10.0781Z" fill="white"/>
</mask>
<g mask="url(#mask3_262_267)">
<path d="M51.8125 10.0781L57.3958 28.4635H61.7708L59.6562 25.026L54.9792 10.0781H51.8125Z" fill="#1D1D1B"/>
</g>
<mask id="mask4_262_267" style="mask-type:luminance" maskUnits="userSpaceOnUse" x="58" y="10" width="10" height="19">
<path d="M58.668 10.0781H68.0013V28.4635H58.668V10.0781Z" fill="white"/>
</mask>
<g mask="url(#mask4_262_267)">
<path d="M64.1042 10.0781L59.6562 25.026L61.7708 28.4635L67.5 10.0781H64.1042Z" fill="#1D1D1B"/>
</g>
<mask id="mask5_262_267" style="mask-type:luminance" maskUnits="userSpaceOnUse" x="58" y="10" width="10" height="19">
<path d="M58.668 10.0781H68.0013V28.4635H58.668V10.0781Z" fill="white"/>
</mask>
<g mask="url(#mask5_262_267)">
<path d="M64.1042 10.0781L59.6562 25.026L61.7708 28.4635L67.5 10.0781H64.1042Z" fill="#1D1D1B"/>
</g>
<mask id="mask6_262_267" style="mask-type:luminance" maskUnits="userSpaceOnUse" x="74" y="10" width="13" height="19">
<path d="M74.668 10.0781H86.668V28.4635H74.668V10.0781Z" fill="white"/>
</mask>
<g mask="url(#mask6_262_267)">
<path d="M74.7305 28.4635L81.819 10.0781H85.3659L78.6523 28.4635H74.7305Z" fill="#1D1D1B"/>
</g>
<mask id="mask7_262_267" style="mask-type:luminance" maskUnits="userSpaceOnUse" x="74" y="10" width="13" height="19">
<path d="M74.668 10.0781H86.668V28.4635H74.668V10.0781Z" fill="white"/>
</mask>
<g mask="url(#mask7_262_267)">
<path d="M74.7305 28.4635L81.819 10.0781H85.3659L78.6523 28.4635H74.7305Z" fill="#1D1D1B"/>
</g>
<mask id="mask8_262_267" style="mask-type:luminance" maskUnits="userSpaceOnUse" x="85" y="10" width="12" height="19">
<path d="M85.332 10.0781H96.0977V28.4635H85.332V10.0781Z" fill="white"/>
</mask>
<g mask="url(#mask8_262_267)">
<path d="M85.3633 10.0781H89.1341L96.0716 28.4635H92.1497L85.3633 10.0781Z" fill="#1D1D1B"/>
</g>
<path d="M81.6471 20.2598H89.1263L90.1784 23.1139H80.6055L81.6471 20.2598Z" fill="#1D1D1B"/>
<mask id="mask9_262_267" style="mask-type:luminance" maskUnits="userSpaceOnUse" x="1" y="10" width="19" height="4">
<path d="M1.33203 10.0781H19.732V13.3333H1.33203V10.0781Z" fill="white"/>
</mask>
<g mask="url(#mask9_262_267)">
<path d="M1.6875 10.0781H19.4201V13.1406H1.6875V10.0781Z" fill="#1D1D1B"/>
</g>
<mask id="mask10_262_267" style="mask-type:luminance" maskUnits="userSpaceOnUse" x="66" y="10" width="6" height="19">
<path d="M66.668 10.0781H72.0013V28.4635H66.668V10.0781Z" fill="white"/>
</mask>
<g mask="url(#mask10_262_267)">
<path d="M67.5 10.0781H71.4219V28.4635H67.5V10.0781Z" fill="#1D1D1B"/>
</g>
<mask id="mask11_262_267" style="mask-type:luminance" maskUnits="userSpaceOnUse" x="1" y="25" width="19" height="4">
<path d="M1.26172 25.334H20.0013V28.4642H1.26172V25.334Z" fill="white"/>
</mask>
<g mask="url(#mask11_262_267)">
<path d="M1.28125 25.6055H19.9948V28.4648H1.28125V25.6055Z" fill="#1D1D1B"/>
</g>
<mask id="mask12_262_267" style="mask-type:luminance" maskUnits="userSpaceOnUse" x="1" y="12" width="19" height="15">
<path d="M1 12H19.7396V26.6667H1V12Z" fill="white"/>
</mask>
<g mask="url(#mask12_262_267)">
<path d="M1 25.4635L19.401 13V16.6979L6.61458 25.4635H1Z" fill="#1D1D1B"/>
</g>
</g>
<path d="M144 10.4004H147.922V28.7858H144V10.4004Z" fill="#1D1D1B"/>
<path d="M148.742 22.8652L150.864 20.7439L157.742 27.6228L155.621 29.7441L148.742 22.8652Z" fill="#1D1D1B"/>
<path d="M131.801 28.4004V25.4004H142.301V28.4004H131.801Z" fill="#1D1D1B"/>
<path d="M115.042 20.4004H122.521L123.573 23.2546H114L115.042 20.4004Z" fill="#1D1D1B"/>
<mask id="mask13_262_267" style="mask-type:luminance" maskUnits="userSpaceOnUse" x="118" y="10" width="12" height="19">
<path d="M118.602 10.4004H129.367V28.7858H118.602V10.4004Z" fill="white"/>
</mask>
<g mask="url(#mask13_262_267)">
<path d="M118.602 10.4004H122.372L129.31 28.7858H125.388L118.602 10.4004Z" fill="#1D1D1B"/>
</g>
<mask id="mask14_262_267" style="mask-type:luminance" maskUnits="userSpaceOnUse" x="108" y="10" width="12" height="19">
<path d="M108 10.4004H120V28.7858H108V10.4004Z" fill="white"/>
</mask>
<g mask="url(#mask14_262_267)">
<path d="M108.062 28.7858L115.151 10.4004H118.698L111.984 28.7858H108.062Z" fill="#1D1D1B"/>
</g>
<mask id="mask15_262_267" style="mask-type:luminance" maskUnits="userSpaceOnUse" x="100" y="13" width="6" height="16">
<path d="M100 13.2012H105.33V28.7012H100V13.2012Z" fill="white"/>
</mask>
<g mask="url(#mask15_262_267)">
<path d="M100.832 13.2012H104.751V28.7012H100.832V13.2012Z" fill="#1D1D1B"/>
</g>
<mask id="mask16_262_267" style="mask-type:luminance" maskUnits="userSpaceOnUse" x="95" y="10" width="16" height="4">
<path d="M95 13.334V10H110.4V13.334L95 13.334Z" fill="white"/>
</mask>
<g mask="url(#mask16_262_267)">
<path d="M95 12.8145V10.3628H110.4V12.8145L95 12.8145Z" fill="#1D1D1B"/>
</g>
<mask id="mask17_262_267" style="mask-type:luminance" maskUnits="userSpaceOnUse" x="143" y="11" width="15" height="14">
<path d="M154.184 11.4004L157.012 14.2288L146.405 24.8354L143.577 22.007L154.184 11.4004Z" fill="white"/>
</mask>
<g mask="url(#mask17_262_267)">
<path d="M154.625 11.8418L156.705 13.9217L146.098 24.5283L144.018 22.4484L154.625 11.8418Z" fill="#1D1D1B"/>
</g>
<mask id="mask18_262_267" style="mask-type:luminance" maskUnits="userSpaceOnUse" x="131" y="10" width="6" height="15">
<path d="M131 10.4004H136.333V24.9004H131V10.4004Z" fill="white"/>
</mask>
<g mask="url(#mask18_262_267)">
<path d="M131.832 10.4004H135.754V24.9004H131.832V10.4004Z" fill="#1D1D1B"/>
</g>
<defs>
<clipPath id="clip0_262_267">
<rect width="98" height="40" fill="white"/>
</clipPath>
</defs>
</svg>
